<?xml version="1.0" encoding="utf-8"?>
<!-- Generator: Adobe Illustrator 27.9.0, SVG Export Plug-In . SVG Version: 6.00 Build 0)  -->
<svg version="1.1" id="Layer_1" xmlns="http://www.w3.org/2000/svg" xmlns:xlink="http://www.w3.org/1999/xlink" x="0px" y="0px"
	 viewBox="0 0 720 720" style="enable-background:new 0 0 720 720;" xml:space="preserve">
<style type="text/css">
	.st0{fill:#FFFF00;stroke:#D1D400;stroke-miterlimit:10;}
</style>
<g>
	<polygon class="st0" points="260.42,657.98 268.11,673.57 285.31,676.06 272.86,688.2 275.8,705.33 260.42,697.24 245.03,705.33 
		247.97,688.2 235.52,676.06 252.72,673.57 	"/>
	<polygon class="st0" points="310.21,657.98 317.9,673.57 335.1,676.06 322.66,688.2 325.59,705.33 310.21,697.24 294.82,705.33 
		297.76,688.2 285.31,676.06 302.51,673.57 	"/>
	<polygon class="st0" points="360,657.98 367.69,673.57 384.9,676.06 372.45,688.2 375.39,705.33 360,697.24 344.61,705.33 
		347.55,688.2 335.1,676.06 352.31,673.57 	"/>
	<polygon class="st0" points="409.79,657.98 417.49,673.57 434.69,676.06 422.24,688.2 425.18,705.33 409.79,697.24 394.41,705.33 
		397.34,688.2 384.9,676.06 402.1,673.57 	"/>
	<polygon class="st0" points="459.58,657.98 467.28,673.57 484.48,676.06 472.03,688.2 474.97,705.33 459.58,697.24 444.2,705.33 
		447.14,688.2 434.69,676.06 451.89,673.57 	"/>
</g>
</svg>
