<?xml version="1.0" encoding="utf-8"?>
<!-- Generator: Adobe Illustrator 27.9.0, SVG Export Plug-In . SVG Version: 6.00 Build 0)  -->
<svg version="1.1" id="Layer_1" xmlns="http://www.w3.org/2000/svg" xmlns:xlink="http://www.w3.org/1999/xlink" x="0px" y="0px"
	 viewBox="0 0 720 720" style="enable-background:new 0 0 720 720;" xml:space="preserve">
<style type="text/css">
	.st0{fill:#FF0000;stroke:#2E3192;stroke-width:9;stroke-miterlimit:10;}
</style>
<g>
	<polygon class="st0" points="72,583.53 94.25,627.29 144,634.31 108,668.38 116.5,716.48 72,693.77 27.5,716.48 36,668.38 
		0,634.31 49.75,627.29 	"/>
	<polygon class="st0" points="216,583.53 238.25,627.29 288,634.31 252,668.38 260.5,716.48 216,693.77 171.5,716.48 180,668.38 
		144,634.31 193.75,627.29 	"/>
	<polygon class="st0" points="360,583.53 382.25,627.29 432,634.31 396,668.38 404.5,716.48 360,693.77 315.5,716.48 324,668.38 
		288,634.31 337.75,627.29 	"/>
	<polygon class="st0" points="504,583.53 526.25,627.29 576,634.31 540,668.38 548.5,716.48 504,693.77 459.5,716.48 468,668.38 
		432,634.31 481.75,627.29 	"/>
	<polygon class="st0" points="648,583.53 670.25,627.29 720,634.31 684,668.38 692.5,716.48 648,693.77 603.5,716.48 612,668.38 
		576,634.31 625.75,627.29 	"/>
</g>
</svg>
